name GIL01_free4.mot
datacolumns 153
datarows 4
range 0.92500001 0.94999999
endheader

                time	           pelvis_tx	           pelvis_ty	           pelvis_tz	         pelvis_tilt	         pelvis_list	     pelvis_rotation	       hip_flexion_r	     hip_adduction_r	      hip_rotation_r	        knee_angle_r	       ankle_angle_r	    subtalar_angle_r	         mtp_angle_r	       hip_flexion_l	     hip_adduction_l	      hip_rotation_l	        knee_angle_l	       ankle_angle_l	    subtalar_angle_l	         mtp_angle_l	    lumbar_extension	      lumbar_bending	     lumbar_rotation	     ground_force_vx	     ground_force_vy	     ground_force_vz	     ground_force_px	     ground_force_py	     ground_force_pz	     ground_force_vx	     ground_force_vy	     ground_force_vz	     ground_force_px	     ground_force_py	     ground_force_pz	     ground_torque_x	     ground_torque_y	     ground_torque_z	     ground_torque_x	     ground_torque_y	     ground_torque_z	    ground_marker_px	    ground_marker_py	    ground_marker_pz	    ground_marker_px	    ground_marker_py	    ground_marker_pz	    ground_marker_px	    ground_marker_py	    ground_marker_pz	    ground_marker_px	    ground_marker_py	    ground_marker_pz	    ground_marker_px	    ground_marker_py	    ground_marker_pz	    ground_marker_px	    ground_marker_py	    ground_marker_pz	    ground_marker_px	    ground_marker_py	    ground_marker_pz	    ground_marker_px	    ground_marker_py	    ground_marker_pz	    ground_marker_px	    ground_marker_py	    ground_marker_pz	    ground_marker_px	    ground_marker_py	    ground_marker_pz	    ground_marker_px	    ground_marker_py	    ground_marker_pz	    ground_marker_px	    ground_marker_py	    ground_marker_pz	    ground_marker_px	    ground_marker_py	    ground_marker_pz	    ground_marker_px	    ground_marker_py	    ground_marker_pz	    ground_marker_px	    ground_marker_py	    ground_marker_pz	    ground_marker_px	    ground_marker_py	    ground_marker_pz	    ground_marker_px	    ground_marker_py	    ground_marker_pz	    ground_marker_px	    ground_marker_py	    ground_marker_pz	    ground_marker_px	    ground_marker_py	    ground_marker_pz	    ground_marker_px	    ground_marker_py	    ground_marker_pz	    ground_marker_px	    ground_marker_py	    ground_marker_pz	    ground_marker_px	    ground_marker_py	    ground_marker_pz	    ground_marker_px	    ground_marker_py	    ground_marker_pz	    ground_marker_px	    ground_marker_py	    ground_marker_pz	    ground_marker_px	    ground_marker_py	    ground_marker_pz	    ground_marker_px	    ground_marker_py	    ground_marker_pz	    ground_marker_px	    ground_marker_py	    ground_marker_pz	    ground_marker_px	    ground_marker_py	    ground_marker_pz	    ground_marker_px	    ground_marker_py	    ground_marker_pz	    ground_marker_px	    ground_marker_py	    ground_marker_pz	    ground_marker_px	    ground_marker_py	    ground_marker_pz	    ground_marker_px	    ground_marker_py	    ground_marker_pz	    ground_marker_px	    ground_marker_py	    ground_marker_pz	    ground_marker_px	    ground_marker_py	    ground_marker_pz	    ground_marker_px	    ground_marker_py	    ground_marker_pz	    ground_marker_px	    ground_marker_py	    ground_marker_pz	    ground_marker_px	    ground_marker_py	    ground_marker_pz	
          0.92500001	          0.80574304	          0.80918336	         -0.25661284	         -2.88340664	         -0.28998744	         -2.07714438	          7.04190826	          6.42694950	          3.93065596	        -12.32659817	          7.12639236	          0.00000000	          0.00000000	         22.52383423	         -5.68718958	         -3.38555098	        -57.47666168	         -2.74503899	          0.00000000	          0.00000000	         -7.09549618	          3.53090048	         -6.32457399	        -10.32748014	        334.68345616	        -12.57965474	          0.76353149	          0.00000000	         -0.22833997	          0.00000000	          0.00000000	          0.00000000	          0.29982188	          0.00000000	         -0.35345462	          0.00000000	          1.11138208	          0.00000000	          0.00000000	          0.00000000	          0.00000000	          0.74779761	          0.74414867	         -0.25807559	          0.73214358	          0.74234146	         -0.19294594	          0.73653907	          0.74049121	         -0.32317412	          0.75799340	          0.40317026	         -0.22553034	          0.84659493	          0.43446931	         -0.34745049	          0.71145254	          0.06557294	         -0.23790480	          0.64035583	          0.16598855	         -0.34248328	          0.80574304	          0.80918336	         -0.25661284	          0.80235869	          0.81060791	         -0.15634370	          0.80912739	          0.80775881	         -0.35688198	          0.64837676	          0.85284030	         -0.22968350	          0.64651561	          0.84966248	         -0.28445670	          0.76035666	          0.39809394	         -0.17081612	          0.84358096	          0.43769458	         -0.40177143	          0.75800741	          0.41285610	         -0.27241513	          0.86395085	          0.40064871	         -0.30914631	          0.70696175	          0.06482765	         -0.20068213	          0.63347447	          0.17060746	         -0.37854311	          0.71226460	          0.06494691	         -0.26333699	          0.64657187	          0.16426957	         -0.31313148	          0.68003100	          1.21855164	         -0.28065297	          0.78038192	          1.16107988	         -0.22532953	          0.79204637	          1.16322589	         -0.30104452	          0.77189791	          1.16087830	         -0.26684070	          0.80016261	          1.07877910	         -0.26237890	          0.85683966	          0.51995605	         -0.11052576	          0.94929564	          0.59653616	         -0.35052672	          0.77468050	          0.57512033	         -0.13298468	          0.86138630	          0.62728280	         -0.38269976	          0.78034341	          0.49337044	         -0.15670519	          0.88342470	          0.54323506	         -0.38521960	          0.71506566	          0.16982843	         -0.11995668	          0.71627897	          0.25574288	         -0.45725423	          0.70864999	          0.13781124	         -0.19670103	          0.68581659	          0.23370630	         -0.38176566	          0.80645293	          0.03660268	         -0.21530394	          0.69547516	          0.07961594	         -0.36254978	
          0.93333334	          0.81325531	          0.80941534	         -0.25611654	         -2.93887234	          0.07668013	         -2.31950498	          6.33898926	          6.09508705	          3.77695966	        -11.98396206	          7.51441669	          0.00000000	          0.00000000	         23.36174774	         -5.31032419	         -2.24900532	        -55.87335587	         -1.84698820	          0.00000000	          0.00000000	         -7.18598747	          3.10450530	         -6.24529028	         -9.45594750	        334.08694848	        -12.53565833	          0.76733722	          0.00000000	         -0.22838283	          0.00000000	          0.00000000	          0.00000000	          0.30159755	          0.00000000	         -0.35327460	          0.00000000	          1.10388477	          0.00000000	          0.00000000	          0.00000000	          0.00000000	          0.75476348	          0.74441826	         -0.25798488	          0.73922867	          0.74232185	         -0.19321415	          0.74436939	          0.74113053	         -0.32342276	          0.76071972	          0.40291950	         -0.22556284	          0.85879892	          0.43636167	         -0.34634510	          0.71168476	          0.06551759	         -0.23801726	          0.66380316	          0.15974306	         -0.34241802	          0.81325531	          0.80941534	         -0.25611654	          0.80929565	          0.81033289	         -0.15582423	          0.81721497	          0.80849779	         -0.35640883	          0.65544099	          0.85324466	         -0.22979079	          0.65384007	          0.85022765	         -0.28453526	          0.76252496	          0.39781713	         -0.17082979	          0.85717875	          0.43984222	         -0.40070972	          0.76082265	          0.41211432	         -0.27212581	          0.87558389	          0.40290308	         -0.30774599	          0.70716006	          0.06480131	         -0.20079812	          0.65690154	          0.16409585	         -0.37850711	          0.71243703	          0.06489413	         -0.26343501	          0.66987932	          0.15849803	         -0.31304625	          0.68828166	          1.21898854	         -0.28012362	          0.78863156	          1.16123152	         -0.22508910	          0.80056685	          1.16320205	         -0.30094296	          0.78029084	          1.16097689	         -0.26671222	          0.80830145	          1.07880449	         -0.26200405	          0.86001700	          0.51857460	         -0.10974954	          0.95932823	          0.60029495	         -0.34584010	          0.77863389	          0.57490063	         -0.13295925	          0.87183928	          0.62987757	         -0.38028687	          0.78342456	          0.49233973	         -0.15659297	          0.89512593	          0.54609466	         -0.38260019	          0.71598816	          0.16980751	         -0.12008649	          0.73660648	          0.25275755	         -0.45678359	          0.70935374	          0.13776371	         -0.19673452	          0.70666474	          0.22948711	         -0.38149557	          0.80646187	          0.03655637	         -0.21535672	          0.72359854	          0.07703415	         -0.36186111	
          0.94166666	          0.82064152	          0.80945218	         -0.25569260	         -3.02201366	          0.43693855	         -2.61691141	          5.71078110	          5.76223230	          3.75197124	        -11.69999027	          7.91719437	          0.00000000	          0.00000000	         24.18000793	         -4.96086502	         -1.21083963	        -54.09537125	         -1.08182538	          0.00000000	          0.00000000	         -7.43526268	          2.54087543	         -5.49818325	         -8.77415910	        334.20480957	        -12.64926713	          0.77129718	          0.00000000	         -0.22838091	          0.00000000	          0.00000000	          0.00000000	          0.30343909	          0.00000000	         -0.35315500	          0.00000000	          1.08208032	          0.00000000	          0.00000000	          0.00000000	          0.00000000	          0.76177800	          0.74462330	         -0.25769600	          0.74610084	          0.74217242	         -0.19360137	          0.75210476	          0.74158913	         -0.32377720	          0.76351100	          0.40257257	         -0.22560500	          0.87063563	          0.43802309	         -0.34522238	          0.71194106	          0.06543881	         -0.23811419	          0.68765509	          0.15322623	         -0.34247166	          0.82064152	          0.80945218	         -0.25569260	          0.81601495	          0.80990171	         -0.15537956	          0.82526815	          0.80900270	         -0.35600564	          0.66242164	          0.85353905	         -0.22998855	          0.66120070	          0.85063934	         -0.28471655	          0.76484329	          0.39748150	         -0.17085734	          0.87036592	          0.44175878	         -0.39959353	          0.76598722	          0.41216812	         -0.27263597	          0.88649917	          0.40506011	         -0.30583286	          0.70739031	          0.06475402	         -0.20089765	          0.68077862	          0.15729538	         -0.37859860	          0.71273994	          0.06479522	         -0.26352620	          0.69396359	          0.15238640	         -0.31315997	          0.69658792	          1.21930003	         -0.27961239	          0.79688364	          1.16120672	         -0.22509003	          0.80820549	          1.16291380	         -0.30085459	          0.78820103	          1.16088963	         -0.26655295	          0.81579727	          1.07857668	         -0.26185152	          0.86337036	          0.51720679	         -0.10912342	          0.96892112	          0.60356539	         -0.34132397	          0.78284496	          0.57459581	         -0.13307071	          0.88180953	          0.63224226	         -0.37798947	          0.78747416	          0.49222723	         -0.15668297	          0.90622258	          0.54854667	         -0.37988323	          0.71697545	          0.16977420	         -0.12019654	          0.75715196	          0.24950655	         -0.45637825	          0.71020538	          0.13761987	         -0.19688655	          0.72793967	          0.22491208	         -0.38127622	          0.80653375	          0.03649281	         -0.21543300	          0.75192004	          0.07432276	         -0.36134371	
          0.94999999	          0.82804382	          0.80935925	         -0.25534156	         -3.09465313	          0.73772693	         -2.87412810	          5.08225060	          5.47344160	          3.69797754	        -11.43849659	          8.34418774	          0.00000000	          0.00000000	         24.93993378	         -4.65151119	         -0.22969143	        -52.16460419	         -0.42053103	          0.00000000	          0.00000000	         -7.54795742	          2.20895600	         -5.03839111	         -8.17065007	        335.29012734	        -12.77359571	          0.77529187	          0.00000000	         -0.22834685	          0.00000000	          0.00000000	          0.00000000	          0.30528053	          0.00000000	         -0.35309070	          0.00000000	          1.05668079	          0.00000000	          0.00000000	          0.00000000	          0.00000000	          0.76885152	          0.74474263	         -0.25719118	          0.75306273	          0.74193668	         -0.19393927	          0.75980794	          0.74185300	         -0.32408005	          0.76640797	          0.40217504	         -0.22564648	          0.88213724	          0.43941447	         -0.34408709	          0.71220297	          0.06535466	         -0.23819654	          0.71187818	          0.14652498	         -0.34263811	          0.82804382	          0.80935925	         -0.25534156	          0.82284367	          0.80942374	         -0.15501180	          0.83324391	          0.80929476	         -0.35567132	          0.66934168	          0.85370833	         -0.23024073	          0.66861063	          0.85087836	         -0.28498152	          0.76730007	          0.39709994	         -0.17088839	          0.88310540	          0.44340113	         -0.39843246	          0.76486635	          0.41176596	         -0.27243978	          0.89732921	          0.40680963	         -0.30464080	          0.70763075	          0.06470385	         -0.20098200	          0.70508265	          0.15029632	         -0.37881264	          0.71329659	          0.06464320	         -0.26362985	          0.71917254	          0.14612348	         -0.31342626	          0.70483977	          1.21951056	         -0.27916718	          0.80520678	          1.16107726	         -0.22507729	          0.81629235	          1.16272628	         -0.30088985	          0.79639089	          1.16077650	         -0.26651779	          0.82373625	          1.07837617	         -0.26188046	          0.86680871	          0.51582438	         -0.10860590	          0.97810304	          0.60638320	         -0.33710915	          0.78737473	          0.57416397	         -0.13310251	          0.89162552	          0.63433337	         -0.37575614	          0.78934151	          0.49091461	         -0.15681148	          0.91713303	          0.55088055	         -0.37745732	          0.71801496	          0.16972968	         -0.12029705	          0.77791929	          0.24601547	         -0.45604056	          0.71096152	          0.13743295	         -0.19707190	          0.74925321	          0.22016375	         -0.38121137	          0.80666578	          0.03642614	         -0.21554288	          0.78041172	          0.07158090	         -0.36101291	
